<?xml version="1.0" standalone="no"?><!DOCTYPE svg PUBLIC "-//W3C//DTD SVG 1.1//EN" "http://www.w3.org/Graphics/SVG/1.1/DTD/svg11.dtd"><svg t="1707581840297" class="icon" viewBox="0 0 1024 1024" version="1.1" xmlns="http://www.w3.org/2000/svg" p-id="6669" xmlns:xlink="http://www.w3.org/1999/xlink" width="64" height="64"><path d="M1005.824 742.69184H18.176c-9.728-0.512-17.92 7.68-17.92 17.92-0.512 10.24 7.68 18.432 17.408 18.944H1005.824c9.728 0.512 17.92-7.68 17.92-17.92 0.512-10.24-7.68-18.432-17.408-18.944h-0.512zM46.848 705.82784h111.104v-182.784h176.64v164.352c0 10.24 7.68 18.432 17.92 18.432 9.728 0 17.92-8.192 17.92-18.432v-164.352l141.312-182.784 141.312 182.784v164.352c0 10.24 7.68 18.432 17.92 18.432 9.728 0 17.92-8.192 17.92-18.432v-164.352h176.64v182.784h111.616c9.728 0 17.92-8.192 17.92-18.432s-7.68-18.432-17.92-18.432h-75.776v-145.92h70.656l-141.312-256H193.792l-141.312 256h70.656v146.432H46.848c-9.728 0-17.92 8.192-17.92 18.432 0.512 10.24 8.192 18.432 17.92 17.92z m761.856-401.408l100.352 181.76h-239.104l-130.56-168.96-10.24-12.8h279.552z m-694.784 181.76l100.352-181.76h279.552l-10.24 12.8-130.56 168.96h-239.104z" fill="#FFC423" p-id="6670"></path><path d="M299.776 669.47584v-109.568h-105.984v109.568h105.984z m-70.656-72.704h34.304v35.84h-34.304v-35.84zM829.696 669.47584v-109.568h-105.984v109.568h105.984z m-70.144-72.704h34.304v35.84h-34.304v-35.84zM441.088 705.82784h141.312v-145.92h-141.312v145.92z m35.84-109.056h69.632v72.192h-69.632v-72.192z" fill="#FFC423" p-id="6671"></path></svg>