<?xml version="1.0" standalone="no"?><!DOCTYPE svg PUBLIC "-//W3C//DTD SVG 1.1//EN" "http://www.w3.org/Graphics/SVG/1.1/DTD/svg11.dtd"><svg t="1707582153175" class="icon" viewBox="0 0 1365 1024" version="1.1" xmlns="http://www.w3.org/2000/svg" p-id="12125" xmlns:xlink="http://www.w3.org/1999/xlink" width="85.3125" height="64"><path d="M1308.586667 1023.544889h-1280a28.586667 28.586667 0 0 1 0-57.173333c18.659556 0 28.444444 0.284444 28.444444 0.284444v-455.111111a26.168889 26.168889 0 0 1 28.444445-28.444445h113.777777v-256l-102.599111 31.004445h-5.688889a30.293333 30.293333 0 0 1-28.444444-23.04 28.700444 28.700444 0 0 1 20.792889-34.417778L841.244444 0.398222a28.444444 28.444444 0 0 1 13.226667 55.182222l-115.313778 29.866667 0.142223 76.060445 502.186666-132.664889a28.444444 28.444444 0 0 1 13.255111 55.182222l-116.821333 29.297778v284.444444h113.777778a26.481778 26.481778 0 0 1 28.444444 28.444445v540.444444s10.922667-0.284444 28.444445-0.284444a25.770667 25.770667 0 0 1 28.444444 28.444444 26.026667 26.026667 0 0 1-28.444444 28.728889z m-371.712-56.888889h1.934222v-398.222222h-85.333333v85.333333h28.444444a26.993778 26.993778 0 0 1 28.444444 28.444445v113.777777a24.917333 24.917333 0 0 1-28.444444 28.444445h-28.444444v142.222222l83.399111-0.284444v0.284444z m-83.399111-455.111111h85.333333v-85.333333a25.116444 25.116444 0 0 1 28.444444-28.444445h113.777778l1.649778-267.377778-343.267556 90.794667 0.284445 148.138667h85.333333a25.912889 25.912889 0 0 1 28.444445 28.444444v113.777778z m369.777777 455.111111v-512h-227.555555v512h227.555555z m-369.777777-199.111111v-56.888889h-369.777778v56.888889h369.777778z m-170.666667 199.111111h113.777778v-142.222222h-113.777778v142.222222z m0-312.888889h-85.333333v-113.777778a25.400889 25.400889 0 0 1 28.444444-28.444444h28.444444a26.026667 26.026667 0 0 1 28.444445 28.444444v113.777778z m113.777778 0v-227.555555h-312.888889v227.555555h312.888889z m-540.444445-426.666667v256h170.666667v-85.333333a25.088 25.088 0 0 1 28.444444-28.444444h227.555556l-0.369778-267.377778-426.296889 125.155555z m-142.222222 312.888889v426.666667l313.372444-0.284444-0.483555-426.382223h-312.888889z m369.777778 284.444445l0.312889 141.937778 113.464889 0.284444v-142.222222h-113.777778z m483.555555-540.444445v56.888889a27.448889 27.448889 0 0 1-28.444444 28.444445h-56.888889a25.6 25.6 0 0 1-28.444444-28.444445v-56.888889a26.368 26.368 0 0 1 28.444444-28.444444h56.888889a27.448889 27.448889 0 0 1 28.444444 28.444444z m-540.444444 0v56.888889a25.969778 25.969778 0 0 1-28.444445 28.444445h-56.888888a25.144889 25.144889 0 0 1-28.444445-28.444445v-56.888889a25.372444 25.372444 0 0 1 28.444445-28.444444h56.888888a25.912889 25.912889 0 0 1 28.444445 28.444444z" fill="#FFC423" p-id="12126"></path></svg>