<?xml version="1.0" standalone="no"?><!DOCTYPE svg PUBLIC "-//W3C//DTD SVG 1.1//EN" "http://www.w3.org/Graphics/SVG/1.1/DTD/svg11.dtd"><svg t="1707581833513" class="icon" viewBox="0 0 1024 1024" version="1.1" xmlns="http://www.w3.org/2000/svg" p-id="6404" xmlns:xlink="http://www.w3.org/1999/xlink" width="64" height="64"><path d="M944 362.672V48a16 16 0 0 0-16-16h-96a16 16 0 0 0-16 16v144.016l-67.2-89.6c-6.032-8.064-19.568-8.064-25.6 0L680 160H112a16 16 0 0 0-15.68 12.864l-64 320c-0.096 0.48 0.08 0.944 0.032 1.424C32.288 494.88 32 495.392 32 496v480a16 16 0 0 0 16 16h880a16 16 0 0 0 16-16V448h32a16.016 16.016 0 0 0 12.8-25.6L944 362.672zM848 64h64v256l-64-85.328V64zM125.12 192H656L483.2 422.4A15.984 15.984 0 0 0 496 448h32v32H67.52l57.6-288zM64 512h464v448H64V512z m698.256 72.16l0.112 0.032A96.368 96.368 0 0 1 832 676.48V704h-80v-122.016c3.44 0.592 6.88 1.216 10.256 2.176zM832 832h-80v-96h80v96z m-112-128h-80v-27.52a96.416 96.416 0 0 1 69.632-92.304c3.408-0.976 6.896-1.616 10.368-2.208V704z m-80 32h80v96h-80v-96z m0 128h80v96h-80v-96z m112 96v-96h80v96h-80z m176-544a16 16 0 0 0-16 16v528h-48V676.48a128.544 128.544 0 0 0-92.832-123.072c-1.792-0.512-3.632-0.72-5.44-1.152-3.984-0.96-7.952-1.968-12-2.544a126.976 126.976 0 0 0-16.88-1.168c-0.288 0-0.56-0.064-0.832-0.064a128 128 0 0 0-35.152 4.928A128.544 128.544 0 0 0 608 676.48V960h-48V432a16 16 0 0 0-16-16h-16L736 138.672 944 416h-16z" p-id="6405" fill="#FFC423"></path><path d="M640 352v128a16 16 0 0 0 16 16h160a16 16 0 0 0 16-16v-128a16 16 0 0 0-16-16H656a16 16 0 0 0-16 16z m32 80h48v32h-48v-32z m80 32v-32h48v32h-48z m48-64h-48v-32h48v32z m-80-32v32h-48v-32h48zM464 608H128a16 16 0 0 0-16 16v192a16 16 0 0 0 16 16h336a16 16 0 0 0 16-16V624a16 16 0 0 0-16-16z m-16 96h-64v-64h64v64z m-208-64h112v160h-112V640z m-32 0v64H144v-64h64z m-64 96h64v64H144v-64z m240 64v-64h64v64h-64z" p-id="6406" fill="#FFC423"></path></svg>